<mxfile host="app.diagrams.net" modified="2023-10-11T07:39:54.918Z" agent="Mozilla/5.0 (Windows NT 10.0; Win64; x64) AppleWebKit/537.36 (KHTML, like Gecko) Chrome/118.0.0.0 Safari/537.36 Edg/118.0.2088.33" etag="P4iqgXhNV9zqgdbI8NwJ" version="22.0.4" type="github">
  <diagram name="Page-1" id="3yI7nzlA466k5dj8VMhI">
    <mxGraphModel dx="1002" dy="527" grid="1" gridSize="10" guides="1" tooltips="1" connect="1" arrows="1" fold="1" page="1" pageScale="1" pageWidth="1100" pageHeight="850" math="0" shadow="0">
      <root>
        <mxCell id="0" />
        <mxCell id="1" parent="0" />
        <mxCell id="7i2mlK-I_6xnAK60gfzi-3" value="" style="edgeStyle=orthogonalEdgeStyle;rounded=0;orthogonalLoop=1;jettySize=auto;html=1;" edge="1" parent="1" source="7i2mlK-I_6xnAK60gfzi-1" target="7i2mlK-I_6xnAK60gfzi-2">
          <mxGeometry relative="1" as="geometry" />
        </mxCell>
        <mxCell id="7i2mlK-I_6xnAK60gfzi-1" value="Home" style="ellipse;whiteSpace=wrap;html=1;" vertex="1" parent="1">
          <mxGeometry x="450" y="20" width="100" height="80" as="geometry" />
        </mxCell>
        <mxCell id="7i2mlK-I_6xnAK60gfzi-5" value="" style="edgeStyle=orthogonalEdgeStyle;rounded=0;orthogonalLoop=1;jettySize=auto;html=1;" edge="1" parent="1" source="7i2mlK-I_6xnAK60gfzi-2" target="7i2mlK-I_6xnAK60gfzi-4">
          <mxGeometry relative="1" as="geometry" />
        </mxCell>
        <mxCell id="7i2mlK-I_6xnAK60gfzi-7" value="" style="edgeStyle=orthogonalEdgeStyle;rounded=0;orthogonalLoop=1;jettySize=auto;html=1;" edge="1" parent="1" source="7i2mlK-I_6xnAK60gfzi-2" target="7i2mlK-I_6xnAK60gfzi-6">
          <mxGeometry relative="1" as="geometry" />
        </mxCell>
        <mxCell id="7i2mlK-I_6xnAK60gfzi-9" value="" style="edgeStyle=orthogonalEdgeStyle;rounded=0;orthogonalLoop=1;jettySize=auto;html=1;" edge="1" parent="1" source="7i2mlK-I_6xnAK60gfzi-2" target="7i2mlK-I_6xnAK60gfzi-8">
          <mxGeometry relative="1" as="geometry" />
        </mxCell>
        <mxCell id="7i2mlK-I_6xnAK60gfzi-2" value="Selection" style="rhombus;whiteSpace=wrap;html=1;" vertex="1" parent="1">
          <mxGeometry x="460" y="140" width="80" height="80" as="geometry" />
        </mxCell>
        <mxCell id="7i2mlK-I_6xnAK60gfzi-14" value="" style="edgeStyle=orthogonalEdgeStyle;rounded=0;orthogonalLoop=1;jettySize=auto;html=1;entryX=1;entryY=0.5;entryDx=0;entryDy=0;" edge="1" parent="1" source="7i2mlK-I_6xnAK60gfzi-4" target="7i2mlK-I_6xnAK60gfzi-12">
          <mxGeometry relative="1" as="geometry">
            <mxPoint x="180" y="180" as="targetPoint" />
            <Array as="points">
              <mxPoint x="270" y="180" />
              <mxPoint x="270" y="95" />
            </Array>
          </mxGeometry>
        </mxCell>
        <mxCell id="7i2mlK-I_6xnAK60gfzi-4" value="Select Class" style="rhombus;whiteSpace=wrap;html=1;" vertex="1" parent="1">
          <mxGeometry x="300" y="140" width="80" height="80" as="geometry" />
        </mxCell>
        <mxCell id="7i2mlK-I_6xnAK60gfzi-6" value="Select Sub" style="rhombus;whiteSpace=wrap;html=1;" vertex="1" parent="1">
          <mxGeometry x="620" y="140" width="80" height="80" as="geometry" />
        </mxCell>
        <mxCell id="7i2mlK-I_6xnAK60gfzi-8" value="Select Topic" style="rhombus;whiteSpace=wrap;html=1;" vertex="1" parent="1">
          <mxGeometry x="460" y="300" width="80" height="80" as="geometry" />
        </mxCell>
        <mxCell id="7i2mlK-I_6xnAK60gfzi-12" value="Class 1st-12th grade" style="whiteSpace=wrap;html=1;aspect=fixed;" vertex="1" parent="1">
          <mxGeometry x="50" y="55" width="80" height="80" as="geometry" />
        </mxCell>
        <mxCell id="7i2mlK-I_6xnAK60gfzi-15" value="Bachlors" style="whiteSpace=wrap;html=1;aspect=fixed;" vertex="1" parent="1">
          <mxGeometry x="50" y="180" width="80" height="80" as="geometry" />
        </mxCell>
        <mxCell id="7i2mlK-I_6xnAK60gfzi-18" value="" style="edgeStyle=orthogonalEdgeStyle;rounded=0;orthogonalLoop=1;jettySize=auto;html=1;entryX=1;entryY=0.5;entryDx=0;entryDy=0;exitX=0;exitY=0.5;exitDx=0;exitDy=0;" edge="1" parent="1" source="7i2mlK-I_6xnAK60gfzi-4" target="7i2mlK-I_6xnAK60gfzi-15">
          <mxGeometry relative="1" as="geometry">
            <mxPoint x="320" y="325" as="sourcePoint" />
            <mxPoint x="150" y="240" as="targetPoint" />
            <Array as="points">
              <mxPoint x="270" y="180" />
              <mxPoint x="270" y="220" />
            </Array>
          </mxGeometry>
        </mxCell>
        <mxCell id="7i2mlK-I_6xnAK60gfzi-19" value="" style="edgeStyle=orthogonalEdgeStyle;rounded=0;orthogonalLoop=1;jettySize=auto;html=1;entryX=1;entryY=0.5;entryDx=0;entryDy=0;exitX=0;exitY=0.5;exitDx=0;exitDy=0;" edge="1" parent="1" source="7i2mlK-I_6xnAK60gfzi-4" target="7i2mlK-I_6xnAK60gfzi-20">
          <mxGeometry relative="1" as="geometry">
            <mxPoint x="310" y="300" as="sourcePoint" />
            <mxPoint x="140" y="340" as="targetPoint" />
            <Array as="points">
              <mxPoint x="270" y="180" />
              <mxPoint x="270" y="340" />
            </Array>
          </mxGeometry>
        </mxCell>
        <mxCell id="7i2mlK-I_6xnAK60gfzi-20" value="Masters" style="whiteSpace=wrap;html=1;aspect=fixed;" vertex="1" parent="1">
          <mxGeometry x="50" y="300" width="80" height="80" as="geometry" />
        </mxCell>
      </root>
    </mxGraphModel>
  </diagram>
</mxfile>
